<svg width="20" height="20" viewBox="0 0 20 20" fill="none" xmlns="http://www.w3.org/2000/svg">
<path d="M17.6096 18.0726H2.92C2.87485 18.0726 2.83013 18.0637 2.78841 18.0464C2.74669 18.0292 2.70878 18.0038 2.67685 17.9719C2.64492 17.94 2.6196 17.9021 2.60232 17.8603C2.58505 17.8186 2.57616 17.7739 2.57617 17.7287V3.03914C2.57616 2.99399 2.58505 2.94927 2.60232 2.90755C2.6196 2.86583 2.64492 2.82792 2.67685 2.79599C2.70878 2.76407 2.74669 2.73874 2.78841 2.72146C2.83013 2.70419 2.87485 2.6953 2.92 2.69531H11.3575L17.9534 9.29117V17.7287C17.9534 17.7739 17.9445 17.8186 17.9273 17.8603C17.91 17.902 17.8847 17.9399 17.8527 17.9719C17.8208 18.0038 17.7829 18.0291 17.7412 18.0464C17.6994 18.0637 17.6547 18.0726 17.6096 18.0726Z" fill="#FFD469"/>
<path d="M9.48652 6.57805H4.92184C4.66352 6.57805 4.4541 6.36863 4.4541 6.11031C4.4541 5.85199 4.66352 5.64258 4.92184 5.64258H9.48652C9.74484 5.64258 9.95426 5.85199 9.95426 6.11031C9.95426 6.36863 9.74484 6.57805 9.48652 6.57805ZM9.95426 9.17184C9.95426 8.91352 9.74484 8.7041 9.48652 8.7041H4.92184C4.66352 8.7041 4.4541 8.91352 4.4541 9.17184C4.4541 9.43016 4.66352 9.63957 4.92184 9.63957H9.48652C9.74484 9.63953 9.95426 9.43016 9.95426 9.17184ZM9.95426 12.2333C9.95426 11.975 9.74484 11.7656 9.48652 11.7656H4.92184C4.66352 11.7656 4.4541 11.975 4.4541 12.2333C4.4541 12.4916 4.66352 12.7011 4.92184 12.7011H9.48652C9.74484 12.701 9.95426 12.4916 9.95426 12.2333ZM13.906 15.2948C13.906 15.0365 13.6966 14.8271 13.4383 14.8271H4.92184C4.66352 14.8271 4.4541 15.0365 4.4541 15.2948C4.4541 15.5531 4.66352 15.7625 4.92184 15.7625H13.4383C13.6966 15.7625 13.906 15.5531 13.906 15.2948ZM15.4816 12.2333C15.4816 11.975 15.2722 11.7656 15.0138 11.7656H11.8627C11.6045 11.7656 11.395 11.975 11.395 12.2333C11.395 12.4916 11.6044 12.7011 11.8627 12.7011H15.0138C15.2722 12.701 15.4816 12.4916 15.4816 12.2333Z" fill="#597B91"/>
<path d="M11.3574 2.69531L17.9533 9.29117H12.7594C11.9851 9.29117 11.3574 8.66348 11.3574 7.88918V2.69531Z" fill="#FFB636"/>
</svg>
