<svg width="16" height="16" viewBox="0 0 16 16" fill="none" xmlns="http://www.w3.org/2000/svg">
<path d="M7.78699 2.21436C10.6158 2.21436 12.907 3.35996 12.907 4.77436C12.907 6.18876 10.6158 7.33436 7.78699 7.33436C4.95819 7.33436 2.66699 6.18876 2.66699 4.77436C2.66699 3.35996 4.95819 2.21436 7.78699 2.21436ZM2.66699 6.05436C2.66699 7.46876 4.95819 8.61436 7.78699 8.61436C10.6158 8.61436 12.907 7.46876 12.907 6.05436V8.02556L12.267 7.97436C10.6094 7.97436 9.19499 9.02396 8.65739 10.496L7.78699 10.5344C4.95819 10.5344 2.66699 9.38876 2.66699 7.97436V6.05436ZM2.66699 9.25436C2.66699 10.6688 4.95819 11.8144 7.78699 11.8144H8.42699C8.42699 12.4864 8.59979 13.12 8.90699 13.6704L7.78699 13.7344C4.95819 13.7344 2.66699 12.5888 2.66699 11.1744V9.25436ZM11.627 13.7856L9.86699 11.8656L10.6094 11.1232L11.627 12.1344L13.9246 9.84316L14.667 10.7456L11.627 13.7856Z" fill="#04D175"/>
</svg>
