<svg width="13" height="9" viewBox="0 0 13 9" fill="none" xmlns="http://www.w3.org/2000/svg">
<path d="M7.26763 4.83612C6.88838 4.83612 6.56943 4.70679 6.31076 4.44813C6.0521 4.18947 5.92277 3.87051 5.92277 3.49126C5.92277 3.11201 6.0521 2.79305 6.31076 2.53439C6.56943 2.27573 6.88838 2.1464 7.26763 2.1464C7.64688 2.1464 7.96584 2.27573 8.2245 2.53439C8.48316 2.79305 8.61249 3.11201 8.61249 3.49126C8.61249 3.87051 8.48316 4.18947 8.2245 4.44813C7.96584 4.70679 7.64688 4.83612 7.26763 4.83612ZM3.10394 6.98319C2.80493 6.98319 2.54918 6.87673 2.3367 6.66379C2.12376 6.45085 2.01729 6.1951 2.01729 5.89655V1.08598C2.01729 0.787417 2.12376 0.531893 2.3367 0.319405C2.54963 0.106916 2.80516 0.000448287 3.10327 0H11.4313C11.7303 0 11.9861 0.106244 12.1986 0.318732C12.4111 0.53122 12.5175 0.786968 12.518 1.08598V5.89655C12.518 6.1951 12.4115 6.45063 12.1986 6.66312C11.9861 6.8765 11.7306 6.98319 11.432 6.98319H3.10394ZM3.77637 6.31076H10.7589C10.7589 6.00951 10.8654 5.75309 11.0783 5.5415C11.2908 5.32991 11.5463 5.22412 11.8449 5.22412V1.75841C11.5445 1.75841 11.2885 1.65216 11.077 1.43967C10.8649 1.22674 10.7589 0.97099 10.7589 0.672431H3.77637C3.77637 0.973232 3.6699 1.22943 3.45697 1.44102C3.24448 1.65261 2.98895 1.75841 2.6904 1.75841V5.22412C2.99075 5.22412 3.24694 5.33058 3.45898 5.54352C3.67058 5.75601 3.77637 6.01153 3.77637 6.31009M10.5262 8.99981H1.08665C0.787641 8.99981 0.531893 8.89357 0.319405 8.68108C0.106468 8.46815 0 8.2124 0 7.91384V1.99107H0.672431V7.91384C0.672431 8.01694 0.715466 8.11176 0.801538 8.19828C0.888057 8.2848 0.983094 8.32805 1.08665 8.32805H10.5262V8.99981ZM3.10394 6.31009H2.68972V0.673103H3.10394C2.99187 0.673103 2.89481 0.714121 2.81278 0.796158C2.73074 0.878195 2.68972 0.975025 2.68972 1.08665V5.89655C2.68972 6.00862 2.73074 6.10567 2.81278 6.18771C2.89481 6.26974 2.99187 6.31076 3.10394 6.31076" fill="black"/>
</svg>
